<svg xmlns="http://www.w3.org/2000/svg" viewBox="0 0 1024 512" role="img" aria-label="KYBBY whale logo">
  <path fill="#1FAEF4" d="M300 0h612c62 0 112 50 112 112v288c0 62-50 112-112 112H260c16-22 28-46 36-72 15-45 17-96 4-143-13-48-40-90-76-121L196 152h104V72c0-40 32-72 72-72z"/>
  <circle cx="868" cy="406" r="30" fill="#0A0A0A"/>
  <path fill="#1FAEF4" d="M0 428c33 40 80 66 133 66 70 0 131-45 153-108-44-14-92-17-138-7-53 11-102 35-148 69z"/>
  <path fill="#1FAEF4" d="M220 242c28 23 50 53 62 88 13 38 13 79 1 117 43-20 76-58 89-106 17-66-9-136-62-175-34 18-64 45-90 76z"/>
</svg>
